<?xml version="1.0" encoding="utf-8"?>
<!-- Generator: Adobe Illustrator 22.1.0, SVG Export Plug-In . SVG Version: 6.00 Build 0)  -->
<svg version="1.1" id="Layer_1" xmlns="http://www.w3.org/2000/svg" xmlns:xlink="http://www.w3.org/1999/xlink" x="0px" y="0px"
	 viewBox="0 0 20 20" style="enable-background:new 0 0 20 20;" xml:space="preserve">
<path d="M7.6,19.7c0,0-0.1,0-0.1,0c-0.9-0.2-1.8-0.6-2.6-1.1c-0.2-0.1-0.3-0.4-0.2-0.7C4.9,17.7,5,17.3,5,17c0-1.1-0.9-2-2-2
	c-0.3,0-0.7,0.1-1,0.2c-0.2,0.1-0.5,0-0.7-0.2c-0.5-0.8-0.8-1.7-1.1-2.6c-0.1-0.3,0.1-0.5,0.3-0.6C1.5,11.6,2,10.9,2,10
	S1.5,8.4,0.6,8.1C0.4,8,0.2,7.8,0.3,7.5c0.2-0.9,0.6-1.8,1.1-2.6C1.5,4.7,1.8,4.6,2,4.8C2.3,4.9,2.7,5,3,5c1.1,0,2-0.9,2-2
	c0-0.3-0.1-0.7-0.2-1c-0.1-0.2,0-0.5,0.2-0.7c0.8-0.5,1.7-0.8,2.6-1.1C7.8,0.2,8,0.4,8.1,0.6C8.4,1.5,9.1,2,10,2s1.6-0.5,1.9-1.4
	c0.1-0.2,0.3-0.4,0.6-0.3c0.9,0.2,1.8,0.6,2.6,1.1c0.2,0.1,0.3,0.4,0.2,0.7C15.1,2.3,15,2.7,15,3c0,1.1,0.9,2,2,2
	c0.3,0,0.7-0.1,1-0.2c0.2-0.1,0.5,0,0.7,0.2c0.5,0.8,0.8,1.7,1.1,2.6c0.1,0.3-0.1,0.5-0.3,0.6C18.5,8.4,18,9.1,18,10
	s0.5,1.6,1.4,1.9c0.2,0.1,0.4,0.3,0.3,0.6c-0.2,0.9-0.6,1.8-1.1,2.6c-0.1,0.2-0.4,0.3-0.7,0.2c-0.3-0.2-0.6-0.2-1-0.2
	c-1.1,0-2,0.9-2,2c0,0.3,0.1,0.7,0.2,1c0.1,0.2,0,0.5-0.2,0.7c-0.8,0.5-1.7,0.8-2.6,1.1c-0.3,0.1-0.5-0.1-0.6-0.3
	c-0.3-0.8-1-1.4-1.9-1.4s-1.6,0.5-1.9,1.4C8,19.6,7.8,19.7,7.6,19.7L7.6,19.7z M10,17c1.1,0,2.1,0.6,2.7,1.6c0.5-0.2,1-0.4,1.5-0.6
	c-0.1-0.3-0.2-0.6-0.2-1c0-1.7,1.3-3,3-3c0.3,0,0.7,0.1,1,0.2c0.3-0.5,0.5-1,0.6-1.5c-1-0.5-1.6-1.5-1.6-2.7s0.6-2.1,1.6-2.7
	c-0.2-0.5-0.4-1-0.6-1.5C17.7,5.9,17.3,6,17,6c-1.7,0-3-1.3-3-3c0-0.3,0.1-0.7,0.2-1c-0.5-0.3-1-0.5-1.5-0.6C12.1,2.4,11.1,3,10,3
	S7.9,2.4,7.3,1.4C6.8,1.6,6.3,1.8,5.8,2C5.9,2.3,6,2.7,6,3c0,1.7-1.3,3-3,3C2.7,6,2.3,5.9,2,5.8c-0.3,0.5-0.5,1-0.6,1.5
	C2.4,7.9,3,8.9,3,10s-0.6,2.1-1.6,2.7c0.2,0.5,0.4,1,0.6,1.5C2.3,14.1,2.7,14,3,14c1.7,0,3,1.3,3,3c0,0.3-0.1,0.7-0.2,1
	c0.5,0.3,1,0.5,1.5,0.6C7.9,17.6,8.9,17,10,17z"/>
<path d="M10,13c-1.7,0-3-1.3-3-3s1.3-3,3-3s3,1.3,3,3S11.7,13,10,13z M10,8c-1.1,0-2,0.9-2,2s0.9,2,2,2s2-0.9,2-2S11.1,8,10,8z"/>
</svg>
